<svg width="35" height="35" viewBox="0 0 35 35" fill="none" xmlns="http://www.w3.org/2000/svg">
<path d="M32.5938 17.8521C32.5938 16.8108 32.5085 15.7652 32.3291 14.7415H17.8041V20.6368H26.121C25.9494 21.5802 25.5881 22.479 25.0591 23.2787C24.53 24.0785 23.8442 24.7626 23.0431 25.2896V29.1177H28.0066C30.9203 26.449 32.5938 22.5115 32.5938 17.8521Z" fill="#4285F4"/>
<path d="M17.8063 32.8124C21.9581 32.8124 25.4603 31.4562 28.0109 29.1155L23.0497 25.2896C21.6694 26.2237 19.8866 26.753 17.8106 26.753C13.7944 26.753 10.3884 24.058 9.16563 20.4355H4.04688V24.3796C5.33662 26.9198 7.30534 29.0527 9.73431 30.5414C12.1633 32.03 14.9574 32.8161 17.8063 32.8124Z" fill="#34A853"/>
<path d="M9.15902 20.4357C8.51396 18.5348 8.51396 16.4741 9.15902 14.5732V10.6292H4.04465C2.96762 12.761 2.40649 15.116 2.40649 17.5045C2.40649 19.8929 2.96762 22.2479 4.04465 24.3798L9.15902 20.4357Z" fill="#FBBC04"/>
<path d="M17.8063 8.24682C19.9995 8.21126 22.1195 9.03572 23.7125 10.5437L28.1094 6.17088C25.315 3.56789 21.6249 2.142 17.8063 2.18963C14.9566 2.18602 12.1618 2.97293 9.73269 4.46285C7.30356 5.95276 5.33532 8.08728 4.04688 10.629L9.15688 14.5687C10.3731 10.9418 13.7856 8.24682 17.8019 8.24682H17.8063Z" fill="#EA4335"/>
</svg>
